<svg width="84" height="56" viewBox="0 0 84 56" fill="none" xmlns="http://www.w3.org/2000/svg">
<path fill-rule="evenodd" clip-rule="evenodd" d="M42 52.2542C46.1184 54.6365 50.9 56 56 56C71.464 56 84 43.464 84 28C84 12.536 71.464 0 56 0C50.9 0 46.1184 1.36353 42 3.74585C41.5849 3.50574 41.1631 3.27612 40.7349 3.05701C39.2838 2.31458 37.7593 1.69519 36.1754 1.21228C33.5891 0.424072 30.8441 0 28 0C27.9387 0 27.8773 0.000244141 27.8161 0.000610352C12.4368 0.0994873 0 12.5974 0 28C0 43.4026 12.4368 55.9005 27.8161 55.9994C27.8773 55.9998 27.9387 56 28 56C30.8448 56 33.5905 55.5758 36.1772 54.7871C37.7606 54.3043 39.2844 53.6851 40.7349 52.943C41.1631 52.7239 41.5849 52.4943 42 52.2542ZM38.1923 49.6085C31.9677 44.4729 28 36.6998 28 28C28 19.3002 31.9677 11.5271 38.1923 6.39148C35.1076 4.88452 31.6516 4.02856 28 4.00073C27.9388 4.00024 27.8774 4 27.8161 4C14.6628 4 4 14.7451 4 28C4 41.2549 14.6628 52 27.8161 52C27.8774 52 27.9388 51.9998 28 51.9993C31.6516 51.9714 35.1076 51.1155 38.1923 49.6085Z" fill="white"/>
</svg>
