<svg width="57" height="56" viewBox="0 0 57 56" fill="none" xmlns="http://www.w3.org/2000/svg">
<path fill-rule="evenodd" clip-rule="evenodd" d="M21 8C25 8 25 0 21 0H6.5C4.33334 0.333374 0 2.30005 0 7.5V48.5C0.166656 50.8334 1.70001 55.5 6.5 55.5H20C24.5 55.5 24.5 47.5 20 47.5H7.5V8H21ZM19 23.5C16.7909 23.5 15 25.2909 15 27.5C15 29.7091 16.7909 31.5 19 31.5H43.0184L35.3882 39.1302C33.8261 40.6923 33.8261 43.225 35.3882 44.787C36.9503 46.3491 39.4829 46.3491 41.045 44.787L54.8468 30.9852C55.6794 30.1527 56.0682 29.0446 56.0133 27.9546C56.0682 26.8646 55.6794 25.7565 54.8468 24.924L41.045 11.1221C39.4829 9.56006 36.9503 9.56006 35.3882 11.1221C33.8261 12.6842 33.8261 15.2169 35.3882 16.7789L42.1092 23.5H19Z" fill="black"/>
</svg>
