<svg width="268" height="268" viewBox="0 0 268 268" fill="none" xmlns="http://www.w3.org/2000/svg">
    <path fill-rule="evenodd" clip-rule="evenodd"
          d="M178.089 0C169.203 0 162 7.20319 162 16.0888C162 24.9744 169.203 32.1777 178.089 32.1777H213.117L133.647 111.647L36.4732 14.4733C30.1902 8.19019 20.0033 8.19019 13.7202 14.4733C7.4371 20.7563 7.4371 30.9432 13.7202 37.2263L110.894 134.4L5.3765 239.918C-0.906586 246.201 -0.906586 256.388 5.3765 262.671C11.6596 268.954 21.8465 268.954 28.1295 262.671L235 55.8005V88.8828C235 97.7683 242.203 104.972 251.089 104.972C259.974 104.972 267.178 97.7683 267.178 88.8827V16.0889C267.178 7.20325 259.974 0 251.089 0L250.986 0.000305176L250.883 0H178.089ZM185.35 163.475C179.067 157.192 168.88 157.192 162.597 163.475C156.314 169.758 156.314 179.945 162.597 186.228L211.247 234.878H178.165C169.279 234.878 162.076 242.081 162.076 250.967C162.076 259.852 169.279 267.056 178.165 267.056H250.959C259.844 267.056 267.047 259.852 267.047 250.967C267.047 250.932 267.047 250.898 267.047 250.864C267.047 250.829 267.047 250.795 267.047 250.761V177.967C267.047 169.081 259.844 161.878 250.959 161.878C242.073 161.878 234.87 169.081 234.87 177.967V212.995L185.35 163.475Z"
          fill="black"/>
</svg>
